HIERARCHY
ROOT Hips
{
 OFFSET 0.000000 0.000000 0.000000
 CHANNELS 6 Xposition Yposition Zposition Yrotation Xrotation Zrotation
 JOINT Chest
 {
  OFFSET 0.000000 9.585900 0.002600
  CHANNELS 3 Yrotation Xrotation Zrotation
  JOINT Chest2
  {
   OFFSET 0.000000 9.601200 -0.005300
   CHANNELS 3 Yrotation Xrotation Zrotation
   JOINT Chest3
   {
    OFFSET 0.000000 9.561800 0.000000
    CHANNELS 3 Yrotation Xrotation Zrotation
    JOINT Chest4
    {
     OFFSET 0.000000 9.552100 0.000000
     CHANNELS 3 Yrotation Xrotation Zrotation
     JOINT Neck
     {
      OFFSET 0.000000 14.453000 0.000000
      CHANNELS 3 Yrotation Xrotation Zrotation
      JOINT Head
      {
       OFFSET 0.000000 8.936500 -0.011300
       CHANNELS 3 Yrotation Xrotation Zrotation
       End Site
       {
        OFFSET 0.000000 17.073600 -0.006000
       }
      }
     }
     JOINT RightCollar
     {
      OFFSET -2.921100 9.558500 0.000000
      CHANNELS 3 Yrotation Xrotation Zrotation
      JOINT RightShoulder
      {
       OFFSET -13.519700 0.000000 0.000000
       CHANNELS 3 Yrotation Xrotation Zrotation
       JOINT RightElbow
       {
        OFFSET 0.000000 -29.696600 0.000000
        CHANNELS 3 Yrotation Xrotation Zrotation
        JOINT RightWrist
        {
         OFFSET 0.000000 -24.004700 0.000000
         CHANNELS 3 Yrotation Xrotation Zrotation
         End Site
         {
          OFFSET 0.000000 -17.728500 0.000000
         }
        }
       }
      }
     }
     JOINT LeftCollar
     {
      OFFSET 2.921100 9.558500 0.000000
      CHANNELS 3 Yrotation Xrotation Zrotation
      JOINT LeftShoulder
      {
       OFFSET 13.519700 0.000000 0.000000
       CHANNELS 3 Yrotation Xrotation Zrotation
       JOINT LeftElbow
       {
        OFFSET 0.000000 -29.696600 0.000000
        CHANNELS 3 Yrotation Xrotation Zrotation
        JOINT LeftWrist
        {
         OFFSET 0.000000 -24.004700 0.000000
         CHANNELS 3 Yrotation Xrotation Zrotation
         End Site
         {
          OFFSET 0.000000 -17.728500 0.000000
         }
        }
       }
      }
     }
    }
   }
  }
 }
 JOINT RightHip
 {
  OFFSET -7.771700 -0.012900 -0.001300
  CHANNELS 3 Yrotation Xrotation Zrotation
  JOINT RightKnee
  {
   OFFSET 0.000000 -40.869800 0.001200
   CHANNELS 3 Yrotation Xrotation Zrotation
   JOINT RightAnkle
   {
    OFFSET 0.000000 -39.717900 0.002100
    CHANNELS 3 Yrotation Xrotation Zrotation
    JOINT RightToe
    {
     OFFSET 0.000000 -4.965400 11.033500
     CHANNELS 3 Yrotation Xrotation Zrotation
     End Site
     {
      OFFSET 0.000000 -1.423100 5.872300
     }
    }
   }
  }
 }
 JOINT LeftHip
 {
  OFFSET 7.771700 -0.012900 -0.001300
  CHANNELS 3 Yrotation Xrotation Zrotation
  JOINT LeftKnee
  {
   OFFSET 0.000000 -40.869800 0.001200
   CHANNELS 3 Yrotation Xrotation Zrotation
   JOINT LeftAnkle
   {
    OFFSET 0.000000 -39.717900 0.002100
    CHANNELS 3 Yrotation Xrotation Zrotation
    JOINT LeftToe
    {
     OFFSET 0.000000 -4.965400 11.033500
     CHANNELS 3 Yrotation Xrotation Zrotation
     End Site
     {
      OFFSET 0.000000 -1.423100 5.872300
     }
    }
   }
  }
 }
}
MOTION
Frames: 16
Frame Time: 0.008333
-13.190511 55.112602 23.835117 -174.987416 -31.173065 -10.892152 -0.536715 13.676628 5.395239 -0.486557 7.792221 2.013769 -0.561663 9.742139 2.521128 -0.496961 7.831964 2.053979 3.769461 23.645499 -0.884613 4.293164 -0.163109 -1.822337 -0.095363 2.471425 -4.040708 -19.430007 -10.377151 6.485190 3.072255 -81.684793 16.327059 12.294229 -3.701446 -0.149040 -9.684283 4.848705 -3.564791 6.047495 -4.259559 -2.263149 -123.320414 -86.224281 118.864231 14.911992 -9.882840 -2.465038 -19.188579 -34.131322 4.649654 -17.568414 88.769907 -20.345936 0.877061 -19.992894 0.567397 -0.050106 0.445693 -0.019913 -16.089766 -46.792978 13.157594 170.544125 79.727910 164.780553 -2.009052 -15.900686 2.807774 -0.832691 -2.409511 -0.374808
-13.192834 55.116006 23.833010 -174.977335 -31.184277 -10.906844 -0.534205 13.687648 5.415453 -0.499867 7.806452 2.017590 -0.568660 9.758292 2.531400 -0.499601 7.840041 2.059524 3.799550 23.659567 -0.902864 4.330675 -0.143905 -1.849199 -0.083562 2.452811 -4.061500 -19.354459 -10.385405 6.509878 1.282713 -81.496717 18.169102 12.270760 -3.710844 -0.029353 -9.678262 4.876183 -3.578269 6.051607 -4.324213 -2.254709 -128.616798 -86.775784 124.101289 14.962183 -9.670210 -2.479814 -19.189301 -34.120396 4.649999 -17.557619 88.776636 -20.326765 0.868097 -19.997700 0.569686 -0.048735 0.448594 -0.020500 -16.072906 -46.796471 13.125767 170.437864 79.705498 164.702914 -1.981012 -15.883300 2.803902 -0.854655 -2.435120 -0.383806
-13.195625 55.120199 23.829547 -174.944976 -31.208003 -10.928731 -0.551900 13.715354 5.426051 -0.501008 7.815802 2.031183 -0.581819 9.799486 2.559557 -0.501532 7.817108 2.034092 3.812024 23.656573 -0.920491 4.387339 -0.118531 -1.877242 -0.082663 2.494429 -4.045052 -19.285276 -10.444970 6.535476 -0.493705 -81.299081 19.996415 12.235309 -3.710437 0.078647 -9.680850 4.912620 -3.581592 6.049942 -4.386817 -2.250063 -136.050861 -87.287530 131.495135 14.955475 -9.413062 -2.564735 -19.193861 -34.092381 4.637956 -17.566632 88.778960 -20.327506 0.859141 -20.004371 0.574236 -0.047721 0.449870 -0.019727 -16.089559 -46.772772 13.112710 170.401590 79.693205 164.669657 -1.979895 -15.889092 2.803741 -0.856575 -2.436302 -0.384376
-13.196282 55.123780 23.827675 -174.932045 -31.229935 -10.949578 -0.553334 13.739206 5.443895 -0.502133 7.827384 2.041118 -0.585303 9.819052 2.569226 -0.503294 7.794795 2.018491 3.829211 23.668974 -0.921105 4.446927 -0.125049 -1.915041 -0.093113 2.604270 -3.986245 -19.207227 -10.556114 6.558504 -2.116379 -81.109456 21.659622 12.198985 -3.686955 0.169977 -9.690683 4.969205 -3.569473 6.050049 -4.448034 -2.257440 -145.576429 -87.691092 141.005786 14.914425 -9.094906 -2.756240 -19.202836 -34.067611 4.644609 -17.705049 88.778810 -20.466772 0.871642 -20.006668 0.572675 -0.047604 0.450475 -0.020124 -16.090097 -46.757431 13.102079 170.351353 79.676020 164.634674 -1.964723 -15.885290 2.800403 -0.868175 -2.448753 -0.388913
-13.197787 55.126952 23.826420 -174.915259 -31.252483 -10.963783 -0.558044 13.763375 5.456476 -0.505157 7.840607 2.047934 -0.586762 9.847186 2.582722 -0.506363 7.843116 2.047712 3.847412 23.611818 -0.976211 4.486207 -0.179261 -1.960675 -0.111269 2.600181 -3.993071 -19.117098 -10.624553 6.593279 -3.503770 -80.942052 23.075669 12.176112 -3.630616 0.246504 -9.700788 4.941781 -3.590326 6.053785 -4.512066 -2.272047 -156.084442 -87.956291 151.521253 14.872064 -8.710782 -3.067449 -19.207045 -34.045832 4.640147 -17.949441 88.784327 -20.711645 0.887258 -20.008847 0.570145 -0.046938 0.450562 -0.019086 -16.089414 -46.738846 13.085475 170.370801 79.667418 164.664197 -1.954426 -15.887441 2.799904 -0.869866 -2.451821 -0.391100
-13.197484 55.130349 23.825558 -174.911350 -31.279673 -10.979179 -0.555399 13.795369 5.476419 -0.505621 7.856889 2.056275 -0.580795 9.879770 2.598371 -0.508043 7.876775 2.065132 3.866165 23.544037 -1.025370 4.521893 -0.259739 -2.010143 -0.128827 2.587205 -3.995565 -19.027903 -10.673923 6.631220 -4.638850 -80.805133 24.229023 12.171440 -3.536405 0.302416 -9.710280 4.883854 -3.612525 6.063676 -4.542149 -2.283352 -165.685399 -88.090841 161.148610 14.859001 -8.269523 -3.490139 -19.202318 -34.018886 4.649384 -18.284730 88.780754 -21.047719 0.890787 -20.008970 0.571683 -0.043185 0.451021 -0.019283 -16.089579 -46.712231 13.081930 170.415637 79.660322 164.718926 -1.941243 -15.898348 2.790342 -0.867026 -2.448454 -0.388618
-13.198989 55.135173 23.822411 -174.876729 -31.322561 -10.998929 -0.563950 13.851545 5.495171 -0.503629 7.914202 2.088644 -0.592821 9.876414 2.588995 -0.514214 7.852113 2.051901 3.947600 23.512490 -1.033304 4.511676 -0.363841 -2.052050 -0.145532 2.629492 -3.966716 -18.926603 -10.724609 6.665063 -5.593101 -80.702868 25.184647 12.187509 -3.401476 0.340125 -9.717661 4.878203 -3.615522 6.073606 -4.566779 -2.302034 -173.438253 -88.130216 168.946774 14.885010 -7.794710 -4.001248 -19.210727 -33.971324 4.632241 -18.432075 88.781637 -21.195079 0.894034 -20.014393 0.568678 -0.049812 0.451492 -0.016403 -16.096803 -46.668381 13.055767 170.416830 79.653396 164.723976 -1.931595 -15.903040 2.790659 -0.868214 -2.448827 -0.389478
-13.199783 55.137127 23.824625 -174.868791 -31.335436 -11.005400 -0.563801 13.879850 5.511171 -0.500334 7.941677 2.101012 -0.592517 9.907935 2.603058 -0.523003 7.821734 2.037877 3.972768 23.467568 -1.051808 4.548427 -0.481965 -2.105585 -0.160067 2.676206 -3.937164 -18.817694 -10.774006 6.697039 -6.486594 -80.634372 26.060760 12.231215 -3.222836 0.377101 -9.712227 5.004481 -3.596287 6.121585 -4.693776 -2.367897 -179.474687 -88.091753 174.974087 14.931573 -7.330636 -4.563371 -19.212888 -33.963212 4.631402 -18.882571 88.780710 -21.643430 0.900619 -20.014660 0.564835 -0.047344 0.454129 -0.014928 -16.099481 -46.659022 13.047748 170.413354 79.647976 164.723825 -1.930321 -15.908561 2.793884 -0.866855 -2.444831 -0.393339
-13.200602 55.139259 23.827209 -174.858562 -31.348405 -11.012916 -0.559213 13.909078 5.531261 -0.506845 7.948497 2.098191 -0.587765 9.969017 2.628519 -0.519833 7.836028 2.051324 3.951958 23.370652 -1.107267 4.593348 -0.613188 -2.156725 -0.180357 2.677158 -3.934032 -18.738967 -10.839132 6.719832 -7.476657 -80.567700 27.047756 12.304669 -2.996121 0.423684 -9.714877 5.048653 -3.606090 6.177426 -4.793760 -2.402865 175.364128 -88.026217 -179.892018 14.983381 -6.945307 -5.126006 -19.216733 -33.954555 4.628509 -19.186310 88.781871 -21.945326 0.910993 -20.013073 0.562313 -0.035823 0.455950 -0.015769 -16.099500 -46.651343 13.035821 170.398731 79.641919 164.715137 -1.924970 -15.909376 2.795663 -0.869036 -2.444609 -0.397467
-13.201042 55.142598 23.828672 -174.846488 -31.371474 -11.025239 -0.558139 13.955041 5.550610 -0.506972 7.993875 2.114802 -0.588618 9.994059 2.635927 -0.509920 7.951266 2.097333 3.944629 23.165363 -1.193359 4.596842 -0.742570 -2.198740 -0.195249 2.579868 -3.963682 -18.650068 -10.883318 6.756884 -8.503437 -80.539893 28.052713 12.402963 -2.719723 0.487731 -9.723517 4.966445 -3.631364 6.244563 -4.878574 -2.409083 170.550251 -87.942869 -175.123927 15.055876 -6.694193 -5.647871 -19.223619 -33.932367 4.624545 -19.123222 88.779251 -21.884849 0.932831 -20.009922 0.556028 -0.045318 0.456406 -0.016238 -16.100123 -46.630687 13.027766 170.389857 79.635909 164.710449 -1.921588 -15.910799 2.796399 -0.872295 -2.446656 -0.397423
-13.201907 55.147965 23.827421 -174.831640 -31.415197 -11.039056 -0.555521 14.024826 5.569754 -0.512203 8.041478 2.129640 -0.588988 10.019522 2.641768 -0.507584 8.013627 2.117161 3.949424 23.013034 -1.247702 4.597667 -0.867272 -2.236424 -0.193821 2.540135 -3.970780 -18.555029 -10.905056 6.810600 -9.538151 -80.545066 29.047021 12.519379 -2.405121 0.587339 -9.724143 4.945836 -3.638066 6.326794 -4.966657 -2.394721 165.639232 -87.838668 -170.284181 15.177549 -6.588918 -6.102150 -19.225045 -33.887160 4.615547 -19.113337 88.782299 -21.872495 0.914199 -20.006434 0.561060 -0.046439 0.454347 -0.019700 -16.086387 -46.589293 13.003401 170.355528 79.627964 164.685828 -1.915171 -15.907519 2.796265 -0.878184 -2.459072 -0.397665
-13.203446 55.150650 23.830742 -174.831564 -31.429787 -11.039404 -0.561660 14.096502 5.592393 -0.507134 8.044980 2.124773 -0.588112 10.058710 2.651346 -0.507130 8.044959 2.124748 3.958329 22.899061 -1.284397 4.591917 -0.980634 -2.268517 -0.185132 2.535199 -3.968730 -18.498736 -10.940776 6.862048 -10.574264 -80.528476 30.061707 12.645363 -2.077503 0.733557 -9.723948 4.965303 -3.635124 6.411707 -5.058820 -2.367071 160.320915 -87.710942 -165.044928 15.348059 -6.607263 -6.463897 -19.240821 -33.878149 4.620530 -19.201869 88.777602 -21.969931 0.899178 -20.001768 0.560368 -0.041741 0.455782 -0.020520 -16.074920 -46.577116 12.992162 170.341620 79.626173 164.674386 -1.918973 -15.915005 2.799658 -0.875226 -2.453246 -0.397961
-13.204797 55.153466 23.834205 -174.834319 -31.444931 -11.039471 -0.556404 14.138982 5.606602 -0.510685 8.061460 2.126025 -0.586671 10.063425 2.651001 -0.507742 8.122680 2.143415 3.957150 22.833038 -1.301188 4.586583 -1.080772 -2.308727 -0.173709 2.536569 -3.967183 -18.457825 -10.972360 6.925323 -11.448147 -80.513978 30.913930 12.775511 -1.760738 0.929979 -9.735451 4.993402 -3.626876 6.492126 -5.151418 -2.333808 154.655320 -87.551875 -159.457529 15.529439 -6.715103 -6.727858 -19.239217 -33.869076 4.617700 -19.236007 88.774794 -22.003394 0.898356 -19.998454 0.558655 -0.041314 0.459276 -0.022190 -16.061512 -46.564951 12.985273 170.331901 79.624729 164.663454 -1.921170 -15.919801 2.807828 -0.876818 -2.451816 -0.398643
-13.207992 55.158635 23.833531 -174.813337 -31.486869 -11.042245 -0.561467 14.209037 5.612723 -0.517970 8.049908 2.117386 -0.584496 10.165670 2.677141 -0.508675 8.128138 2.141686 3.945331 22.750624 -1.328736 4.589454 -1.155609 -2.333701 -0.159928 2.543916 -3.965242 -18.429349 -11.000620 7.000540 -12.048950 -80.516649 31.493618 12.911566 -1.468200 1.179691 -9.763482 5.027977 -3.611193 6.564009 -5.238787 -2.302671 149.199645 -87.355917 -154.076043 15.683783 -6.870391 -6.922864 -19.238433 -33.828904 4.588615 -19.201910 88.774366 -21.971079 0.900606 -20.000486 0.559271 -0.045845 0.459344 -0.023325 -16.021243 -46.528710 12.928958 170.303564 79.623145 164.652443 -1.911902 -15.917057 2.810401 -0.883094 -2.461444 -0.397842
-13.209463 55.161862 23.836272 -174.802906 -31.507690 -11.046339 -0.560555 14.255561 5.624259 -0.512180 8.080515 2.126077 -0.592402 10.224330 2.687360 -0.511990 8.134329 2.141554 3.929973 22.674938 -1.353756 4.568926 -1.290031 -2.364238 -0.142504 2.551509 -3.966862 -18.398437 -11.026638 7.083263 -12.131647 -80.586213 31.537785 13.007500 -1.197502 1.484087 -9.799843 5.064518 -3.593067 6.619388 -5.316427 -2.276911 144.694017 -87.129428 -149.627912 15.800394 -7.028313 -7.103475 -19.247340 -33.811469 4.576552 -19.009642 88.774649 -21.778925 0.908315 -19.997420 0.552014 -0.044757 0.460359 -0.024333 -16.010838 -46.510864 12.909410 170.296028 79.622347 164.649237 -1.909312 -15.919425 2.813558 -0.883438 -2.461937 -0.398296
-13.210516 55.165211 23.838599 -174.792487 -31.533255 -11.050660 -0.560561 14.307224 5.634570 -0.516635 8.108211 2.130235 -0.587469 10.265592 2.696542 -0.511958 8.164853 2.147760 3.912182 22.607415 -1.376406 4.549488 -1.383291 -2.385688 -0.127346 2.552889 -3.973098 -18.355822 -11.052276 7.162608 -12.297211 -80.614432 31.681769 13.180653 -0.986320 1.772421 -9.845013 5.096925 -3.578281 6.652242 -5.380443 -2.254362 141.407621 -86.885265 -146.369589 15.890806 -7.148545 -7.335363 -19.250651 -33.788408 4.562558 -18.783721 88.772782 -21.553454 0.920788 -19.997506 0.545091 -0.049573 0.463868 -0.025054 -16.001555 -46.487738 12.893308 170.302366 79.621881 164.656273 -1.908749 -15.919781 2.817219 -0.881529 -2.463528 -0.397857
